<svg width="20" height="20" viewBox="0 0 20 20" fill="none" xmlns="http://www.w3.org/2000/svg">
<path d="M10.0603 15.6333C10.3337 15.6333 10.5709 15.5328 10.772 15.3317C10.973 15.1307 11.0735 14.8854 11.0735 14.5959C11.0735 14.3225 10.973 14.0852 10.772 13.8842C10.5709 13.6832 10.3337 13.5826 10.0603 13.5826C9.77075 13.5826 9.52547 13.6832 9.32443 13.8842C9.12338 14.0852 9.02286 14.3225 9.02286 14.5959C9.02286 14.8854 9.12338 15.1307 9.32443 15.3317C9.52547 15.5328 9.77075 15.6333 10.0603 15.6333ZM10.0361 5.88661C10.5186 5.88661 10.9087 6.02332 11.2062 6.29674C11.5038 6.57016 11.6525 6.90792 11.6525 7.31001C11.6525 7.6156 11.5681 7.91315 11.3992 8.20265C11.2303 8.49216 10.9449 8.79775 10.5428 9.11942C10.1246 9.48934 9.78683 9.88741 9.52949 10.3136C9.27215 10.7398 9.14349 11.1218 9.14349 11.4596C9.14349 11.6526 9.2239 11.8094 9.38474 11.93C9.54558 12.0507 9.7225 12.111 9.9155 12.111C10.1246 12.111 10.3095 12.0426 10.4704 11.9059C10.6312 11.7692 10.7438 11.5883 10.8081 11.3631C10.8564 11.0575 10.9609 10.7881 11.1218 10.5549C11.2826 10.3217 11.5158 10.0764 11.8214 9.81906C12.2718 9.44914 12.6055 9.05911 12.8226 8.64897C13.0397 8.23884 13.1483 7.77644 13.1483 7.26176C13.1483 6.39324 12.8789 5.69361 12.3401 5.16285C11.8013 4.63209 11.0735 4.36671 10.1568 4.36671C9.51341 4.36671 8.93038 4.49538 8.40766 4.75271C7.88494 5.01005 7.43862 5.37998 7.0687 5.86248C6.92394 6.0394 6.87167 6.24045 6.91188 6.46562C6.95209 6.69079 7.04457 6.85163 7.18932 6.94813C7.38233 7.09288 7.59544 7.14113 7.82865 7.09288C8.06186 7.04463 8.25889 6.91596 8.41972 6.70688C8.61273 6.44954 8.84996 6.24849 9.13142 6.10374C9.41289 5.95899 9.71445 5.88661 10.0361 5.88661ZM9.98788 20C8.5886 20 7.2818 19.7467 6.06749 19.24C4.85318 18.7334 3.79568 18.0298 2.89499 17.1291C1.99431 16.2284 1.28663 15.1709 0.771954 13.9566C0.257277 12.7423 -6.10352e-05 11.4274 -6.10352e-05 10.0121C-6.10352e-05 8.61279 0.257277 7.30599 0.771954 6.09168C1.28663 4.87736 1.99431 3.81986 2.89499 2.91918C3.79568 2.0185 4.85318 1.3068 6.06749 0.784077C7.2818 0.261359 8.5886 0 9.98788 0C11.3711 0 12.6698 0.261359 13.8841 0.784077C15.0985 1.3068 16.156 2.0185 17.0566 2.91918C17.9573 3.81986 18.673 4.87736 19.2038 6.09168C19.7346 7.30599 19.9999 8.61279 19.9999 10.0121C19.9999 11.4274 19.7346 12.7423 19.2038 13.9566C18.673 15.1709 17.9573 16.2284 17.0566 17.1291C16.156 18.0298 15.0985 18.7334 13.8841 19.24C12.6698 19.7467 11.3711 20 9.98788 20ZM9.98788 18.0941C12.2235 18.0941 14.1294 17.306 15.7056 15.7298C17.2818 14.1536 18.0699 12.2477 18.0699 10.0121C18.0699 7.79252 17.2818 5.89063 15.7056 4.30639C14.1294 2.72216 12.2235 1.93004 9.98788 1.93004C7.704 1.93004 5.78603 2.72216 4.23396 4.30639C2.68188 5.89063 1.90585 7.79252 1.90585 10.0121C1.90585 12.2477 2.68188 14.1536 4.23396 15.7298C5.78603 17.306 7.704 18.0941 9.98788 18.0941Z" fill="#686687"/>
</svg>
