<svg width="48" height="49" viewBox="0 0 48 49" fill="none" xmlns="http://www.w3.org/2000/svg">
<rect y="0.860229" width="48" height="48" rx="8" fill="#153AC7"/>
<g clip-path="url(#clip0_1409_23387)">
<path d="M24 14.8602C18.48 14.8602 14 19.3402 14 24.8602C14 30.3802 18.48 34.8602 24 34.8602C29.52 34.8602 34 30.3802 34 24.8602C34 19.3402 29.52 14.8602 24 14.8602ZM31.46 21.9802L28.68 23.1302C28.17 21.7702 27.1 20.6902 25.73 20.1902L26.88 17.4102C28.98 18.2102 30.65 19.8802 31.46 21.9802ZM24 27.8602C22.34 27.8602 21 26.5202 21 24.8602C21 23.2002 22.34 21.8602 24 21.8602C25.66 21.8602 27 23.2002 27 24.8602C27 26.5202 25.66 27.8602 24 27.8602ZM21.13 17.4002L22.3 20.1802C20.92 20.6802 19.83 21.7702 19.32 23.1502L16.54 21.9902C17.35 19.8802 19.02 18.2102 21.13 17.4002ZM16.54 27.7302L19.32 26.5802C19.83 27.9602 20.91 29.0402 22.29 29.5402L21.12 32.3202C19.02 31.5102 17.35 29.8402 16.54 27.7302ZM26.88 32.3202L25.73 29.5402C27.1 29.0302 28.18 27.9502 28.68 26.5702L31.46 27.7402C30.65 29.8402 28.98 31.5102 26.88 32.3202Z" fill="white"/>
</g>
<defs>
<clipPath id="clip0_1409_23387">
<rect width="20" height="20" fill="white" transform="translate(14 14.8602)"/>
</clipPath>
</defs>
</svg>
