<svg width="20" height="20" viewBox="0 0 20 20" fill="none" xmlns="http://www.w3.org/2000/svg">
<path d="M2.99178 17.8415H6.68031V10.8743H13.2377V17.8415H16.9262V7.37705L9.959 2.15847L2.99178 7.37705V17.8415ZM2.99178 20C2.39069 20 1.88067 19.7905 1.46173 19.3716C1.04278 18.9526 0.833313 18.4426 0.833313 17.8415V7.37705C0.833313 7.04918 0.910726 6.73042 1.06555 6.42076C1.22038 6.11111 1.43441 5.8561 1.70763 5.65574L8.64752 0.437159C8.84788 0.291439 9.06191 0.18215 9.2896 0.10929C9.51728 0.03643 9.74042 0 9.959 0C10.1958 0 10.4235 0.03643 10.6421 0.10929C10.8606 0.18215 11.0701 0.291439 11.2705 0.437159L18.2104 5.65574C18.4836 5.8561 18.7022 6.11111 18.8661 6.42076C19.03 6.73042 19.112 7.04918 19.112 7.37705V17.8415C19.112 18.4426 18.898 18.9526 18.4699 19.3716C18.0419 19.7905 17.5273 20 16.9262 20H11.2431V12.8689H8.67484V20H2.99178Z" fill="#686687"/>
</svg>
