<svg width="16" height="16" viewBox="0 0 16 16" fill="none" xmlns="http://www.w3.org/2000/svg">
<path d="M1.77784 1.77778H7.11117C7.60006 1.77778 8.00006 1.37778 8.00006 0.888889C8.00006 0.4 7.60006 0 7.11117 0H1.77784C0.800061 0 6.10352e-05 0.8 6.10352e-05 1.77778V14.2222C6.10352e-05 15.2 0.800061 16 1.77784 16H7.11117C7.60006 16 8.00006 15.6 8.00006 15.1111C8.00006 14.6222 7.60006 14.2222 7.11117 14.2222H1.77784V1.77778Z" fill="#8E96A0"/>
<path d="M15.6889 7.68892L13.2089 5.20892C12.9245 4.92447 12.4445 5.12003 12.4445 5.52003V7.11114H6.22226C5.73337 7.11114 5.33337 7.51114 5.33337 8.00003C5.33337 8.48892 5.73337 8.88892 6.22226 8.88892H12.4445V10.48C12.4445 10.88 12.9245 11.0756 13.2 10.7911L15.68 8.31114C15.8578 8.14225 15.8578 7.8578 15.6889 7.68892Z" fill="#8E96A0"/>
</svg>
