<svg width="16" height="17" viewBox="0 0 16 17" fill="none" xmlns="http://www.w3.org/2000/svg">
<g id="Icon Set" clip-path="url(#clip0_1095_167331)">
<path id="Vector" d="M14.2063 12.4956L13.1479 11.4372V7.33459C13.1479 4.81561 11.8022 2.7069 9.45557 2.14895V1.591C9.45557 0.909973 8.90583 0.360229 8.2248 0.360229C7.54378 0.360229 6.99403 0.909973 6.99403 1.591V2.14895C4.63916 2.7069 3.30172 4.80741 3.30172 7.33459V11.4372L2.24326 12.4956C1.72634 13.0125 2.08737 13.8987 2.81762 13.8987H13.6238C14.3622 13.8987 14.7233 13.0125 14.2063 12.4956ZM11.5069 12.2577H4.94275V7.33459C4.94275 5.29972 6.18172 3.64228 8.2248 3.64228C10.2679 3.64228 11.5069 5.29972 11.5069 7.33459V12.2577ZM8.2248 16.3602C9.12737 16.3602 9.86583 15.6218 9.86583 14.7192H6.58378C6.58378 15.6218 7.31403 16.3602 8.2248 16.3602Z" fill="#686687"/>
</g>
<defs>
<clipPath id="clip0_1095_167331">
<rect width="16" height="16" fill="white" transform="translate(0 0.360229)"/>
</clipPath>
</defs>
</svg>
