<svg width="20" height="20" viewBox="0 0 20 20" fill="none" xmlns="http://www.w3.org/2000/svg">
<path d="M11.4733 20H8.14404C7.90278 20 7.68565 19.9276 7.49265 19.7829C7.29965 19.6381 7.18706 19.4451 7.15489 19.2039L6.79301 16.8637C6.53567 16.7672 6.25823 16.6345 5.96068 16.4656C5.66314 16.2967 5.40982 16.1238 5.20073 15.9469L3.05357 16.9602C2.82839 17.0728 2.5992 17.0889 2.36599 17.0084C2.13278 16.928 1.95184 16.7752 1.82317 16.5501L0.134386 13.5344C0.00571642 13.3253 -0.0304718 13.1041 0.0258209 12.8709C0.0821136 12.6377 0.206762 12.4407 0.399765 12.2799L2.40218 10.8323C2.37001 10.7197 2.34991 10.583 2.34186 10.4222C2.33382 10.2614 2.3298 10.1246 2.3298 10.0121C2.3298 9.89948 2.33382 9.76277 2.34186 9.60193C2.34991 9.44109 2.37001 9.30438 2.40218 9.1918L0.399765 7.72014C0.206762 7.57539 0.0821136 7.38239 0.0258209 7.14113C-0.0304718 6.89988 0.00571642 6.68275 0.134386 6.48975L1.82317 3.47407C1.95184 3.26498 2.13278 3.12023 2.36599 3.03981C2.5992 2.95939 2.82839 2.96743 3.05357 3.06393L5.22486 4.0772C5.43394 3.90028 5.68324 3.7314 5.97274 3.57057C6.26225 3.40973 6.53567 3.2891 6.79301 3.20868L7.15489 0.820265C7.18706 0.579011 7.29965 0.381986 7.49265 0.229192C7.68565 0.0763972 7.90278 0 8.14404 0H11.4733C11.7146 0 11.9317 0.0763972 12.1247 0.229192C12.3177 0.381986 12.4303 0.579011 12.4625 0.820265L12.8244 3.18456C13.0817 3.28106 13.3592 3.40571 13.6567 3.5585C13.9542 3.7113 14.2076 3.8842 14.4167 4.0772L16.5638 3.06393C16.789 2.96743 17.0182 2.95537 17.2514 3.02774C17.4846 3.10012 17.6655 3.24889 17.7942 3.47407L19.5071 6.46562C19.6358 6.67471 19.672 6.89988 19.6157 7.14113C19.5594 7.38239 19.4267 7.57539 19.2176 7.72014L17.2152 9.14355C17.2313 9.27222 17.2474 9.41697 17.2635 9.5778C17.2795 9.73864 17.2876 9.88339 17.2876 10.0121C17.2876 10.1407 17.2795 10.2815 17.2635 10.4343C17.2474 10.5871 17.2313 10.7278 17.2152 10.8565L19.2176 12.2799C19.4106 12.4407 19.5353 12.6377 19.5916 12.8709C19.6479 13.1041 19.6197 13.3253 19.5071 13.5344L17.7942 16.5501C17.6655 16.7752 17.4846 16.928 17.2514 17.0084C17.0182 17.0889 16.789 17.0728 16.5638 16.9602L14.3925 15.9469C14.1834 16.1238 13.9382 16.3008 13.6567 16.4777C13.3752 16.6546 13.0978 16.7833 12.8244 16.8637L12.4625 19.2039C12.4303 19.4451 12.3177 19.6381 12.1247 19.7829C11.9317 19.9276 11.7146 20 11.4733 20ZM9.78457 13.1484C10.6531 13.1484 11.3929 12.8428 12.0041 12.2316C12.6153 11.6204 12.9209 10.8806 12.9209 10.0121C12.9209 9.14355 12.6153 8.4037 12.0041 7.79252C11.3929 7.18134 10.6531 6.87575 9.78457 6.87575C8.91605 6.87575 8.1762 7.18134 7.56503 7.79252C6.95385 8.4037 6.64826 9.14355 6.64826 10.0121C6.64826 10.8806 6.95385 11.6204 7.56503 12.2316C8.1762 12.8428 8.91605 13.1484 9.78457 13.1484ZM9.78457 11.7008C9.30206 11.7008 8.89997 11.536 8.57829 11.2063C8.25662 10.8766 8.09579 10.4785 8.09579 10.0121C8.09579 9.54564 8.25662 9.14757 8.57829 8.81785C8.89997 8.48814 9.30206 8.32328 9.78457 8.32328C10.251 8.32328 10.6491 8.48814 10.9788 8.81785C11.3085 9.14757 11.4733 9.54564 11.4733 10.0121C11.4733 10.4785 11.3085 10.8766 10.9788 11.2063C10.6491 11.536 10.251 11.7008 9.78457 11.7008ZM8.8678 18.0941H10.7496L11.0873 15.392C11.6342 15.2634 12.1529 15.0623 12.6434 14.7889C13.134 14.5155 13.5723 14.1777 13.9583 13.7756L16.5156 14.8854L17.36 13.3173L15.1163 11.6767C15.1806 11.4033 15.2329 11.1299 15.2731 10.8565C15.3133 10.583 15.3334 10.3016 15.3334 10.0121C15.3334 9.72256 15.3173 9.44109 15.2852 9.16767C15.253 8.89425 15.1967 8.62083 15.1163 8.34741L17.36 6.70688L16.5156 5.13872L13.9583 6.24849C13.5883 5.81423 13.1621 5.44833 12.6796 5.15078C12.1971 4.85324 11.6664 4.6723 11.0873 4.60796L10.7496 1.93004H8.8678L8.53004 4.60796C7.96712 4.70446 7.44038 4.89747 6.94983 5.18697C6.45928 5.47648 6.021 5.83032 5.63499 6.24849L3.10182 5.13872L2.25743 6.70688L4.47697 8.32328C4.41263 8.61279 4.36036 8.89425 4.32015 9.16767C4.27994 9.44109 4.25984 9.72256 4.25984 10.0121C4.25984 10.3016 4.27994 10.5871 4.32015 10.8685C4.36036 11.15 4.41263 11.4274 4.47697 11.7008L2.25743 13.3173L3.10182 14.8854L5.63499 13.7756C6.03708 14.1777 6.4834 14.5195 6.97395 14.801C7.4645 15.0824 7.9832 15.2875 8.53004 15.4162L8.8678 18.0941Z" fill="#686687"/>
</svg>
